<?xml version="1.0" encoding="UTF-8" standalone="no"?><!DOCTYPE svg PUBLIC "-//W3C//DTD SVG 1.1//EN" "http://www.w3.org/Graphics/SVG/1.1/DTD/svg11.dtd"><svg width="100%" height="100%" viewBox="0 0 97 85" version="1.1" xmlns="http://www.w3.org/2000/svg" xmlns:xlink="http://www.w3.org/1999/xlink" xml:space="preserve" xmlns:serif="http://www.serif.com/" style="fill-rule:evenodd;clip-rule:evenodd;stroke-linejoin:round;stroke-miterlimit:2;"><rect id="Logo-BW" x="0.049" y="0.07" width="96" height="83.993" style="fill:none;"/><clipPath id="_clip1"><rect id="Logo-BW1" serif:id="Logo-BW" x="0.049" y="0.07" width="96" height="83.993"/></clipPath><g clip-path="url(#_clip1)"><g id="Full-Logo" serif:id="Full Logo"><path d="M96.208,49.994c-2.743,2.793 -5.729,5.348 -8.922,7.63c-11.015,7.873 -24.505,12.508 -39.078,12.508c-14.573,0 -28.062,-4.635 -39.078,-12.508c-3.194,-2.282 -6.178,-4.837 -8.922,-7.63c3.292,5.552 7.523,10.481 12.469,14.576c7.614,12.008 20.978,19.563 35.531,19.563c14.552,0 27.917,-7.555 35.531,-19.563c4.947,-4.095 9.177,-9.024 12.469,-14.576" style="fill:#231f20;fill-rule:nonzero;"/><rect x="40.385" y="42.073" width="6.929" height="6.899" style="fill:#fff;"/><rect x="49.102" y="42.073" width="6.929" height="6.899" style="fill:#fff;"/><rect x="40.385" y="50.761" width="6.929" height="6.899" style="fill:#fff;"/><rect x="49.102" y="50.761" width="6.929" height="6.899" style="fill:#fff;"/><path d="M48.208,0.14c-23.229,-0 -42.06,18.831 -42.06,42.06c-0,3.171 0.362,6.255 1.027,9.226c5.923,5.021 12.783,8.963 20.273,11.555l-0,-16.314l-8.311,0l29.071,-21.169l13.606,9.907l-0,-5.221l7.14,0l-0,10.421l8.325,6.062l-8.311,0l-0,16.314c7.49,-2.592 14.35,-6.534 20.272,-11.555c0.665,-2.971 1.028,-6.055 1.028,-9.226c0,-23.229 -18.831,-42.06 -42.06,-42.06" style="fill:#fff;fill-rule:nonzero;"/></g></g></svg>