<?xml version="1.0" encoding="UTF-8" standalone="no"?><!DOCTYPE svg PUBLIC "-//W3C//DTD SVG 1.1//EN" "http://www.w3.org/Graphics/SVG/1.1/DTD/svg11.dtd"><svg width="100%" height="100%" viewBox="0 0 96 84" version="1.1" xmlns="http://www.w3.org/2000/svg" xmlns:xlink="http://www.w3.org/1999/xlink" xml:space="preserve" xmlns:serif="http://www.serif.com/" style="fill-rule:evenodd;clip-rule:evenodd;stroke-linejoin:round;stroke-miterlimit:2;"><rect id="Logo-Colour" x="-0" y="0" width="96" height="83.993" style="fill:none;"/><clipPath id="_clip1"><rect id="Logo-Colour1" serif:id="Logo-Colour" x="-0" y="0" width="96" height="83.993"/></clipPath><g clip-path="url(#_clip1)"><g id="Full-Logo" serif:id="Full Logo"><path d="M96.159,49.924c-2.744,2.793 -5.729,5.348 -8.922,7.63c-11.016,7.873 -24.506,12.508 -39.078,12.508c-14.573,0 -28.063,-4.635 -39.079,-12.508c-3.193,-2.282 -6.178,-4.837 -8.921,-7.63c3.292,5.552 7.522,10.481 12.469,14.576c7.614,12.009 20.978,19.563 35.531,19.563c14.552,0 27.917,-7.554 35.531,-19.563c4.946,-4.095 9.176,-9.024 12.469,-14.576" style="fill:#231f20;fill-rule:nonzero;"/><rect x="40.335" y="42.004" width="6.929" height="6.899" style="fill:#1375bc;"/><rect x="49.053" y="42.004" width="6.929" height="6.899" style="fill:#1375bc;"/><rect x="40.335" y="50.691" width="6.929" height="6.899" style="fill:#1375bc;"/><rect x="49.053" y="50.691" width="6.929" height="6.899" style="fill:#1375bc;"/><path d="M48.159,0.07c-23.23,-0 -42.06,18.831 -42.06,42.06c-0,3.171 0.362,6.256 1.027,9.226c5.922,5.021 12.783,8.963 20.273,11.555l-0,-16.314l-8.312,0l29.072,-21.169l13.606,9.907l-0,-5.221l7.139,0l0,10.421l8.326,6.062l-8.311,0l-0,16.314c7.49,-2.592 14.35,-6.534 20.272,-11.555c0.665,-2.97 1.028,-6.055 1.028,-9.226c-0,-23.229 -18.832,-42.06 -42.06,-42.06" style="fill:#1375bc;fill-rule:nonzero;"/></g></g></svg>